<?xml version="1.0" encoding="UTF-8"?>
<svg xmlns="http://www.w3.org/2000/svg" xmlns:xlink="http://www.w3.org/1999/xlink" width="550" zoomAndPan="magnify" viewBox="0 0 412.5 412.499996" height="550" preserveAspectRatio="xMidYMid meet" version="1.0">
  <defs>
    <clipPath id="a1398d8b4f">
      <path d="M 27.988281 4.773438 L 386.804688 4.773438 L 386.804688 407 L 27.988281 407 Z M 27.988281 4.773438 " clip-rule="nonzero"></path>
    </clipPath>
    <clipPath id="5ecc78dbc7">
      <path d="M 147.769531 12.742188 C 166.125 7.929688 187.117188 4.773438 207.664062 4.773438 C 228.207031 4.773438 247.976562 7.480469 266.195312 12.292969 C 266.585938 12.441406 266.972656 12.441406 267.359375 12.59375 C 335.78125 31.835938 386.175781 82.65625 387.144531 143.433594 L 387.144531 406.976562 L 27.988281 406.976562 L 27.988281 143.628906 C 28.957031 82.355469 78.578125 31.535156 147.769531 12.742188 Z M 147.769531 12.742188 " clip-rule="nonzero"></path>
    </clipPath>
    <clipPath id="5233c561cc">
      <path d="M 32 104 L 50 104 L 50 125 L 32 125 Z M 32 104 " clip-rule="nonzero"></path>
    </clipPath>
    <clipPath id="e309f46730">
      <path d="M 51.359375 107.546875 L 46.789062 127.121094 L 32.179688 123.707031 L 36.753906 104.136719 Z M 51.359375 107.546875 " clip-rule="nonzero"></path>
    </clipPath>
    <clipPath id="16ada3349a">
      <path d="M 49.125 113.894531 C 49.324219 114.992188 49.339844 116.199219 49.078125 117.316406 C 48.816406 118.433594 48.324219 119.453125 47.664062 120.34375 C 47.644531 120.363281 47.640625 120.382812 47.621094 120.402344 C 45.03125 123.71875 39.84375 125.398438 34.867188 124.289062 L 32.191406 123.664062 L 36.753906 104.136719 L 39.425781 104.761719 C 44.40625 105.980469 48.324219 109.738281 49.125 113.894531 Z M 49.125 113.894531 " clip-rule="nonzero"></path>
    </clipPath>
    <clipPath id="7423ca8063">
      <path d="M 367 105 L 385 105 L 385 127 L 367 127 Z M 367 105 " clip-rule="nonzero"></path>
    </clipPath>
    <clipPath id="b6e71ce5c9">
      <path d="M 369.523438 128.777344 L 364.945312 109.207031 L 379.554688 105.789062 L 384.132812 125.363281 Z M 369.523438 128.777344 " clip-rule="nonzero"></path>
    </clipPath>
    <clipPath id="dc98c6bd4f">
      <path d="M 368.714844 122.097656 C 368.050781 121.203125 367.5 120.125 367.238281 119.007812 C 366.976562 117.890625 366.96875 116.761719 367.167969 115.667969 C 367.175781 115.644531 367.171875 115.625 367.179688 115.597656 C 368.03125 111.476562 371.9375 107.671875 376.890625 106.460938 L 379.566406 105.832031 L 384.132812 125.363281 L 381.457031 125.988281 C 376.453125 127.101562 371.273438 125.46875 368.714844 122.097656 Z M 368.714844 122.097656 " clip-rule="nonzero"></path>
    </clipPath>
    <clipPath id="81b1021185">
      <path d="M 70 43 L 92 43 L 92 66 L 70 66 Z M 70 43 " clip-rule="nonzero"></path>
    </clipPath>
    <clipPath id="9955221691">
      <path d="M 96.507812 56.410156 L 81.796875 70.097656 L 70.15625 57.589844 L 84.863281 43.902344 Z M 96.507812 56.410156 " clip-rule="nonzero"></path>
    </clipPath>
    <clipPath id="25eaa41c0d">
      <path d="M 91.113281 60.433594 C 90.664062 61.453125 90.003906 62.464844 89.164062 63.246094 C 88.324219 64.027344 87.34375 64.597656 86.300781 64.96875 C 86.273438 64.972656 86.257812 64.988281 86.234375 64.992188 C 82.230469 66.300781 76.988281 64.796875 73.445312 61.070312 L 70.183594 57.5625 L 84.863281 43.902344 L 88.125 47.402344 C 91.609375 51.230469 92.765625 56.535156 91.113281 60.433594 Z M 91.113281 60.433594 " clip-rule="nonzero"></path>
    </clipPath>
    <clipPath id="a04f17d7c7">
      <path d="M 129 11 L 154 11 L 154 29 L 129 29 Z M 129 11 " clip-rule="nonzero"></path>
    </clipPath>
    <clipPath id="b4012f1a03">
      <path d="M 156.617188 23.378906 L 133.863281 31.457031 L 129.785156 19.96875 L 152.535156 11.890625 Z M 156.617188 23.378906 " clip-rule="nonzero"></path>
    </clipPath>
    <clipPath id="4f795c6d3f">
      <path d="M 148.792969 25.378906 C 147.777344 26.207031 146.546875 26.953125 145.246094 27.414062 C 143.945312 27.875 142.613281 28.085938 141.3125 28.078125 C 141.28125 28.074219 141.257812 28.082031 141.230469 28.078125 C 136.308594 27.949219 131.554688 24.683594 129.808594 19.960938 L 152.535156 11.890625 C 154.167969 16.679688 152.59375 22.195312 148.792969 25.378906 Z M 148.792969 25.378906 " clip-rule="nonzero"></path>
    </clipPath>
    <clipPath id="ff7dcaadc7">
      <path d="M 201.523438 7.519531 L 224.953125 7.519531 L 224.953125 19.710938 L 201.523438 19.710938 Z M 201.523438 7.519531 " clip-rule="nonzero"></path>
    </clipPath>
    <clipPath id="ed0b62407b">
      <path d="M 217.152344 18.976562 C 215.957031 19.421875 214.589844 19.710938 213.25 19.710938 C 211.910156 19.710938 210.625 19.460938 209.4375 19.019531 C 209.410156 19.007812 209.386719 19.007812 209.359375 18.992188 C 204.902344 17.222656 201.621094 12.554688 201.558594 7.519531 L 224.953125 7.519531 C 224.890625 12.582031 221.660156 17.25 217.152344 18.976562 Z M 217.152344 18.976562 " clip-rule="nonzero"></path>
    </clipPath>
    <clipPath id="480cbfca4c">
      <path d="M 273 14 L 297 14 L 297 32 L 273 32 Z M 273 14 " clip-rule="nonzero"></path>
    </clipPath>
    <clipPath id="1cf2879741">
      <path d="M 292.121094 35.253906 L 269.707031 25.894531 L 274.40625 14.644531 L 296.816406 24.003906 Z M 292.121094 35.253906 " clip-rule="nonzero"></path>
    </clipPath>
    <clipPath id="44d145b7c9">
      <path d="M 284.941406 31.460938 C 283.628906 31.394531 282.207031 31.113281 280.929688 30.582031 C 279.648438 30.046875 278.511719 29.300781 277.546875 28.421875 C 277.53125 28.398438 277.503906 28.386719 277.488281 28.363281 C 273.90625 24.953125 272.566406 19.332031 274.445312 14.660156 L 296.816406 24.003906 C 294.808594 28.652344 289.917969 31.667969 284.941406 31.460938 Z M 284.941406 31.460938 " clip-rule="nonzero"></path>
    </clipPath>
    <clipPath id="2cf36df688">
      <path d="M 332 50 L 354 50 L 354 73 L 332 73 Z M 332 50 " clip-rule="nonzero"></path>
    </clipPath>
    <clipPath id="ebf22b4cca">
      <path d="M 342.714844 76.566406 L 327.632812 63.304688 L 338.730469 50.6875 L 353.8125 63.949219 Z M 342.714844 76.566406 " clip-rule="nonzero"></path>
    </clipPath>
    <clipPath id="3c7515fa95">
      <path d="M 338.175781 71.601562 C 337.113281 71.253906 336.042969 70.699219 335.179688 69.941406 C 334.320312 69.183594 333.65625 68.269531 333.183594 67.265625 C 333.175781 67.238281 333.160156 67.226562 333.152344 67.199219 C 331.449219 63.347656 332.421875 57.984375 335.773438 54.089844 L 338.75 50.703125 L 353.8125 63.949219 L 350.835938 67.332031 C 347.382812 71.179688 342.21875 72.855469 338.175781 71.601562 Z M 338.175781 71.601562 " clip-rule="nonzero"></path>
    </clipPath>
    <clipPath id="6654d035dd">
      <path d="M 27.980469 195.972656 L 42.527344 195.972656 L 42.527344 216.082031 L 27.980469 216.082031 Z M 27.980469 195.972656 " clip-rule="nonzero"></path>
    </clipPath>
    <clipPath id="bb27746a75">
      <path d="M 41.792969 202.660156 C 42.234375 203.6875 42.527344 204.859375 42.527344 206.003906 C 42.527344 207.152344 42.277344 208.257812 41.835938 209.273438 C 41.820312 209.296875 41.820312 209.316406 41.808594 209.339844 C 40.039062 213.160156 35.371094 215.972656 30.28125 216.027344 L 27.980469 216.027344 L 27.980469 195.972656 L 30.28125 195.972656 C 35.398438 196.027344 40.066406 198.796875 41.792969 202.660156 Z M 41.792969 202.660156 " clip-rule="nonzero"></path>
    </clipPath>
    <clipPath id="bc498eb68b">
      <path d="M 372.929688 200.261719 L 387.152344 200.261719 L 387.152344 220.371094 L 372.929688 220.371094 Z M 372.929688 200.261719 " clip-rule="nonzero"></path>
    </clipPath>
    <clipPath id="1556c12ff3">
      <path d="M 373.664062 213.683594 C 373.21875 212.65625 372.929688 211.484375 372.929688 210.339844 C 372.929688 209.191406 373.179688 208.085938 373.621094 207.070312 C 373.632812 207.046875 373.632812 207.027344 373.648438 207.003906 C 375.417969 203.183594 380.085938 200.371094 385.167969 200.316406 L 387.152344 200.316406 L 387.152344 220.371094 L 385.167969 220.371094 C 380.058594 220.316406 375.390625 217.546875 373.664062 213.683594 Z M 373.664062 213.683594 " clip-rule="nonzero"></path>
    </clipPath>
    <clipPath id="479e574cbc">
      <path d="M 57.765625 56.984375 L 358.214844 56.984375 L 358.214844 404 L 57.765625 404 Z M 57.765625 56.984375 " clip-rule="nonzero"></path>
    </clipPath>
    <clipPath id="f58f8e5db7">
      <path d="M 157.96875 60.359375 C 173.324219 58.324219 190.882812 56.984375 208.070312 56.984375 C 225.257812 56.984375 241.796875 58.132812 257.039062 60.167969 C 257.363281 60.234375 257.6875 60.234375 258.011719 60.296875 C 315.246094 68.445312 357.402344 89.960938 358.214844 119.601562 L 358.214844 403.234375 L 57.765625 403.234375 L 57.765625 119.8125 C 58.574219 89.832031 100.085938 68.316406 157.96875 60.359375 Z M 157.96875 60.359375 " clip-rule="nonzero"></path>
    </clipPath>
  </defs>
  <g clip-path="url(#a1398d8b4f)">
    <g clip-path="url(#5ecc78dbc7)">
      <path stroke-linecap="butt" transform="matrix(0.749092, 0, 0, 0.749092, 27.98847, 4.773707)" fill="none" stroke-linejoin="miter" d="M 159.901675 10.63752 C 184.4053 4.213075 212.428812 -0.000359826 239.857854 -0.000359826 C 267.281681 -0.000359826 293.673008 3.61339 317.99412 10.037835 C 318.515585 10.235992 319.031835 10.235992 319.548085 10.439363 C 410.887837 36.126713 478.161995 103.969267 479.455227 185.103955 L 479.455227 536.920526 L -0.000252112 536.920526 L -0.000252112 185.364688 C 1.29298 103.567739 67.534638 35.725185 159.901675 10.63752 Z M 159.901675 10.63752 " stroke="#102242" stroke-width="8" stroke-opacity="1" stroke-miterlimit="4"></path>
    </g>
  </g>
  <g clip-path="url(#5233c561cc)">
    <g clip-path="url(#e309f46730)">
      <g clip-path="url(#16ada3349a)">
        <path fill="#102242" d="M 51.359375 107.546875 L 46.800781 127.0625 L 32.195312 123.652344 L 36.753906 104.136719 Z M 51.359375 107.546875 " fill-opacity="1" fill-rule="nonzero"></path>
      </g>
    </g>
  </g>
  <g clip-path="url(#7423ca8063)">
    <g clip-path="url(#b6e71ce5c9)">
      <g clip-path="url(#dc98c6bd4f)">
        <path fill="#102242" d="M 369.523438 128.777344 L 364.960938 109.261719 L 379.570312 105.847656 L 384.132812 125.363281 Z M 369.523438 128.777344 " fill-opacity="1" fill-rule="nonzero"></path>
      </g>
    </g>
  </g>
  <g clip-path="url(#81b1021185)">
    <g clip-path="url(#9955221691)">
      <g clip-path="url(#25eaa41c0d)">
        <path fill="#102242" d="M 96.507812 56.410156 L 81.847656 70.054688 L 70.207031 57.542969 L 84.863281 43.902344 Z M 96.507812 56.410156 " fill-opacity="1" fill-rule="nonzero"></path>
      </g>
    </g>
  </g>
  <g clip-path="url(#a04f17d7c7)">
    <g clip-path="url(#b4012f1a03)">
      <g clip-path="url(#4f795c6d3f)">
        <path fill="#102242" d="M 156.617188 23.378906 L 133.910156 31.441406 L 129.828125 19.953125 L 152.535156 11.890625 Z M 156.617188 23.378906 " fill-opacity="1" fill-rule="nonzero"></path>
      </g>
    </g>
  </g>
  <g clip-path="url(#ff7dcaadc7)">
    <g clip-path="url(#ed0b62407b)">
      <path fill="#102242" d="M 224.953125 19.710938 L 201.570312 19.710938 L 201.570312 7.519531 L 224.953125 7.519531 Z M 224.953125 19.710938 " fill-opacity="1" fill-rule="nonzero"></path>
    </g>
  </g>
  <g clip-path="url(#480cbfca4c)">
    <g clip-path="url(#1cf2879741)">
      <g clip-path="url(#44d145b7c9)">
        <path fill="#102242" d="M 292.121094 35.253906 L 269.753906 25.914062 L 274.449219 14.664062 L 296.816406 24.003906 Z M 292.121094 35.253906 " fill-opacity="1" fill-rule="nonzero"></path>
      </g>
    </g>
  </g>
  <g clip-path="url(#2cf36df688)">
    <g clip-path="url(#ebf22b4cca)">
      <g clip-path="url(#3c7515fa95)">
        <path fill="#102242" d="M 342.714844 76.566406 L 327.632812 63.304688 L 338.730469 50.6875 L 353.8125 63.949219 Z M 342.714844 76.566406 " fill-opacity="1" fill-rule="nonzero"></path>
      </g>
    </g>
  </g>
  <path stroke-linecap="butt" transform="matrix(-0.0101434, 0.749023, -0.749023, -0.0101434, 213.555559, 19.724756)" fill="none" stroke-linejoin="miter" d="M -0.00122196 0.501832 L 512.019713 0.498874 " stroke="#102242" stroke-width="1" stroke-opacity="1" stroke-miterlimit="4"></path>
  <path stroke-linecap="butt" transform="matrix(-0.146869, 0.734553, -0.734553, -0.146869, 283.166248, 29.127087)" fill="none" stroke-linejoin="miter" d="M 0.000881255 0.497359 L 509.404159 0.49852 " stroke="#102242" stroke-width="1" stroke-opacity="1" stroke-miterlimit="4"></path>
  <path stroke-linecap="butt" transform="matrix(-0.272726, 0.697681, -0.697681, -0.272726, 338.034133, 71.574899)" fill="none" stroke-linejoin="miter" d="M -0.000463161 0.502615 L 475.574525 0.499219 " stroke="#102242" stroke-width="1" stroke-opacity="1" stroke-miterlimit="4"></path>
  <path stroke-linecap="butt" transform="matrix(-0.377053, 0.647279, -0.647279, -0.377053, 370.968312, 124.188017)" fill="none" stroke-linejoin="miter" d="M 0.000682624 0.499821 L 431.405505 0.502048 " stroke="#102242" stroke-width="1" stroke-opacity="1" stroke-miterlimit="4"></path>
  <path stroke-linecap="butt" transform="matrix(0.123331, 0.73887, -0.73887, 0.123331, 145.625646, 27.360799)" fill="none" stroke-linejoin="miter" d="M -0.000424152 0.497762 L 508.636535 0.498077 " stroke="#102242" stroke-width="1" stroke-opacity="1" stroke-miterlimit="4"></path>
  <path stroke-linecap="butt" transform="matrix(0.24713, 0.707153, -0.707153, 0.24713, 89.523164, 63.120796)" fill="none" stroke-linejoin="miter" d="M 0.00147102 0.502803 L 480.792696 0.49944 " stroke="#102242" stroke-width="1" stroke-opacity="1" stroke-miterlimit="4"></path>
  <path stroke-linecap="butt" transform="matrix(0.363893, 0.654767, -0.654767, 0.363893, 49.415018, 117.133065)" fill="none" stroke-linejoin="miter" d="M 0.000527812 0.502884 L 436.672 0.502025 " stroke="#102242" stroke-width="1" stroke-opacity="1" stroke-miterlimit="4"></path>
  <path stroke-linecap="butt" transform="matrix(0.481437, 0.573897, -0.573897, 0.481437, 42.819322, 205.760197)" fill="none" stroke-linejoin="miter" d="M -0.0018998 0.500363 L 343.672894 0.501348 " stroke="#102242" stroke-width="1" stroke-opacity="1" stroke-miterlimit="4"></path>
  <g clip-path="url(#6654d035dd)">
    <g clip-path="url(#bb27746a75)">
      <path fill="#102242" d="M 42.527344 195.972656 L 42.527344 216.027344 L 27.980469 216.027344 L 27.980469 195.972656 Z M 42.527344 195.972656 " fill-opacity="1" fill-rule="nonzero"></path>
    </g>
  </g>
  <g clip-path="url(#bc498eb68b)">
    <g clip-path="url(#1556c12ff3)">
      <path fill="#102242" d="M 372.929688 220.371094 L 372.929688 200.316406 L 387.152344 200.316406 L 387.152344 220.371094 Z M 372.929688 220.371094 " fill-opacity="1" fill-rule="nonzero"></path>
    </g>
  </g>
  <path stroke-linecap="butt" transform="matrix(-0.486842, 0.569319, -0.569319, -0.486842, 373.21433, 210.592265)" fill="none" stroke-linejoin="miter" d="M -0.00121967 0.501013 L 338.799818 0.499137 " stroke="#102242" stroke-width="1" stroke-opacity="1" stroke-miterlimit="4"></path>
  <g clip-path="url(#479e574cbc)">
    <g clip-path="url(#f58f8e5db7)">
      <path fill="#ffffff" d="M 57.765625 56.984375 L 358.214844 56.984375 L 358.214844 403.207031 L 57.765625 403.207031 Z M 57.765625 56.984375 " fill-opacity="1" fill-rule="nonzero"></path>
    </g>
  </g>
</svg>
