<?xml version="1.0" encoding="UTF-8" standalone="no"?><svg xmlns:svg="http://www.w3.org/2000/svg" xmlns="http://www.w3.org/2000/svg" xmlns:xlink="http://www.w3.org/1999/xlink" version="1.0" width="64px" height="64px" viewBox="0 0 128 128" xml:space="preserve"><path d="M64 0A64 64 0 1 1 0 64 64 64 0 0 1 64 0zm0 11.75A52.25 52.25 0 1 1 11.75 64 52.25 52.25 0 0 1 64 11.75zm0 46.5A5.75 5.75 0 1 1 58.25 64 5.75 5.75 0 0 1 64 58.25zm0-42.5a5.75 5.75 0 1 1-5.75 5.75A5.75 5.75 0 0 1 64 15.75zm0 85a5.75 5.75 0 1 1-5.75 5.75 5.75 5.75 0 0 1 5.75-5.75zm42.5-42.5a5.75 5.75 0 1 1-5.75 5.75 5.75 5.75 0 0 1 5.75-5.75zm-85 0A5.75 5.75 0 1 1 15.75 64a5.75 5.75 0 0 1 5.75-5.75zm36.75-28.5h11.5v25h-11.5v-25z" fill-rule="evenodd" fill="#22b573"/><g><path d="M69.75 98.08h-11.5v-25h11.5v25z" fill="#22b573"/><animateTransform attributeName="transform" type="rotate" from="0 64 64" to="360 64 64" dur="1620ms" repeatCount="indefinite"></animateTransform></g></svg>